<svg width="20" height="21" viewBox="0 0 20 21" fill="none" xmlns="http://www.w3.org/2000/svg">
<g clip-path="url(#clip0_4542_2413)">
<path d="M0.833333 5.02189H19.1667C19.3877 5.02189 19.5996 4.93409 19.7559 4.77781C19.9122 4.62153 20 4.40957 20 4.18856C20 3.96754 19.9122 3.75558 19.7559 3.5993C19.5996 3.44302 19.3877 3.35522 19.1667 3.35522H0.833333C0.61232 3.35522 0.400358 3.44302 0.244078 3.5993C0.0877974 3.75558 0 3.96754 0 4.18856C0 4.40957 0.0877974 4.62153 0.244078 4.77781C0.400358 4.93409 0.61232 5.02189 0.833333 5.02189Z" fill="#1A1A1A"/>
<path d="M4.16671 7.52197C3.94569 7.52197 3.73373 7.60977 3.57745 7.76605C3.42117 7.92233 3.33337 8.13429 3.33337 8.35531C3.33337 8.57632 3.42117 8.78828 3.57745 8.94456C3.73373 9.10084 3.94569 9.18864 4.16671 9.18864H15.8334C16.0544 9.18864 16.2664 9.10084 16.4226 8.94456C16.5789 8.78828 16.6667 8.57632 16.6667 8.35531C16.6667 8.13429 16.5789 7.92233 16.4226 7.76605C16.2664 7.60977 16.0544 7.52197 15.8334 7.52197H4.16671Z" fill="#1A1A1A"/>
<path d="M15.8334 15.8552H4.16671C3.94569 15.8552 3.73373 15.943 3.57745 16.0993C3.42117 16.2556 3.33337 16.4675 3.33337 16.6886C3.33337 16.9096 3.42117 17.1215 3.57745 17.2778C3.73373 17.4341 3.94569 17.5219 4.16671 17.5219H15.8334C16.0544 17.5219 16.2664 17.4341 16.4226 17.2778C16.5789 17.1215 16.6667 16.9096 16.6667 16.6886C16.6667 16.4675 16.5789 16.2556 16.4226 16.0993C16.2664 15.943 16.0544 15.8552 15.8334 15.8552Z" fill="#1A1A1A"/>
<path d="M19.1667 11.6887H0.833333C0.61232 11.6887 0.400358 11.7765 0.244078 11.9328C0.0877974 12.0891 0 12.301 0 12.5221C0 12.7431 0.0877974 12.955 0.244078 13.1113C0.400358 13.2676 0.61232 13.3554 0.833333 13.3554H19.1667C19.3877 13.3554 19.5996 13.2676 19.7559 13.1113C19.9122 12.955 20 12.7431 20 12.5221C20 12.301 19.9122 12.0891 19.7559 11.9328C19.5996 11.7765 19.3877 11.6887 19.1667 11.6887Z" fill="#1A1A1A"/>
</g>
<defs>
<clipPath id="clip0_4542_2413">
<rect width="20" height="20" fill="white" transform="translate(0 0.0219727)"/>
</clipPath>
</defs>
</svg>
