<svg width="20" height="21" viewBox="0 0 20 21" fill="none" xmlns="http://www.w3.org/2000/svg">
<g clip-path="url(#clip0_4542_2408)">
<path d="M0.833333 5.02189H19.1667C19.3877 5.02189 19.5996 4.93409 19.7559 4.77781C19.9122 4.62153 20 4.40957 20 4.18856C20 3.96754 19.9122 3.75558 19.7559 3.5993C19.5996 3.44302 19.3877 3.35522 19.1667 3.35522H0.833333C0.61232 3.35522 0.400358 3.44302 0.244078 3.5993C0.0877974 3.75558 0 3.96754 0 4.18856C0 4.40957 0.0877974 4.62153 0.244078 4.77781C0.400358 4.93409 0.61232 5.02189 0.833333 5.02189Z" fill="#1A1A1A"/>
<path d="M0.833333 9.18864H12.5C12.721 9.18864 12.933 9.10084 13.0893 8.94456C13.2455 8.78828 13.3333 8.57632 13.3333 8.35531C13.3333 8.13429 13.2455 7.92233 13.0893 7.76605C12.933 7.60977 12.721 7.52197 12.5 7.52197H0.833333C0.61232 7.52197 0.400358 7.60977 0.244078 7.76605C0.0877974 7.92233 0 8.13429 0 8.35531C0 8.57632 0.0877974 8.78828 0.244078 8.94456C0.400358 9.10084 0.61232 9.18864 0.833333 9.18864Z" fill="#1A1A1A"/>
<path d="M12.5 15.8552H0.833333C0.61232 15.8552 0.400358 15.943 0.244078 16.0993C0.0877974 16.2556 0 16.4675 0 16.6886C0 16.9096 0.0877974 17.1215 0.244078 17.2778C0.400358 17.4341 0.61232 17.5219 0.833333 17.5219H12.5C12.721 17.5219 12.933 17.4341 13.0893 17.2778C13.2455 17.1215 13.3333 16.9096 13.3333 16.6886C13.3333 16.4675 13.2455 16.2556 13.0893 16.0993C12.933 15.943 12.721 15.8552 12.5 15.8552Z" fill="#1A1A1A"/>
<path d="M19.1667 11.6887H0.833333C0.61232 11.6887 0.400358 11.7765 0.244078 11.9328C0.0877974 12.0891 0 12.301 0 12.5221C0 12.7431 0.0877974 12.955 0.244078 13.1113C0.400358 13.2676 0.61232 13.3554 0.833333 13.3554H19.1667C19.3877 13.3554 19.5996 13.2676 19.7559 13.1113C19.9122 12.955 20 12.7431 20 12.5221C20 12.301 19.9122 12.0891 19.7559 11.9328C19.5996 11.7765 19.3877 11.6887 19.1667 11.6887Z" fill="#1A1A1A"/>
</g>
<defs>
<clipPath id="clip0_4542_2408">
<rect width="20" height="20" fill="white" transform="translate(0 0.0219727)"/>
</clipPath>
</defs>
</svg>
