<svg width="20" height="21" viewBox="0 0 20 21" fill="none" xmlns="http://www.w3.org/2000/svg">
<g clip-path="url(#clip0_4542_2423)">
<path d="M0.833333 5.02189H19.1667C19.3877 5.02189 19.5996 4.93409 19.7559 4.77781C19.9122 4.62153 20 4.40957 20 4.18856C20 3.96754 19.9122 3.75558 19.7559 3.5993C19.5996 3.44302 19.3877 3.35522 19.1667 3.35522H0.833333C0.61232 3.35522 0.400358 3.44302 0.244078 3.5993C0.0877974 3.75558 0 3.96754 0 4.18856C0 4.40957 0.0877974 4.62153 0.244078 4.77781C0.400358 4.93409 0.61232 5.02189 0.833333 5.02189Z" fill="#1A1A1A"/>
<path d="M19.1666 7.52197H7.49996C7.27895 7.52197 7.06698 7.60977 6.9107 7.76605C6.75442 7.92233 6.66663 8.13429 6.66663 8.35531C6.66663 8.57632 6.75442 8.78828 6.9107 8.94456C7.06698 9.10084 7.27895 9.18864 7.49996 9.18864H19.1666C19.3876 9.18864 19.5996 9.10084 19.7559 8.94456C19.9122 8.78828 20 8.57632 20 8.35531C20 8.13429 19.9122 7.92233 19.7559 7.76605C19.5996 7.60977 19.3876 7.52197 19.1666 7.52197Z" fill="#1A1A1A"/>
<path d="M19.1666 15.8552H7.49996C7.27895 15.8552 7.06698 15.943 6.9107 16.0993C6.75442 16.2556 6.66663 16.4675 6.66663 16.6886C6.66663 16.9096 6.75442 17.1215 6.9107 17.2778C7.06698 17.4341 7.27895 17.5219 7.49996 17.5219H19.1666C19.3876 17.5219 19.5996 17.4341 19.7559 17.2778C19.9122 17.1215 20 16.9096 20 16.6886C20 16.4675 19.9122 16.2556 19.7559 16.0993C19.5996 15.943 19.3876 15.8552 19.1666 15.8552Z" fill="#1A1A1A"/>
<path d="M19.1667 11.6887H0.833333C0.61232 11.6887 0.400358 11.7765 0.244078 11.9328C0.0877974 12.0891 0 12.301 0 12.5221C0 12.7431 0.0877974 12.955 0.244078 13.1113C0.400358 13.2676 0.61232 13.3554 0.833333 13.3554H19.1667C19.3877 13.3554 19.5996 13.2676 19.7559 13.1113C19.9122 12.955 20 12.7431 20 12.5221C20 12.301 19.9122 12.0891 19.7559 11.9328C19.5996 11.7765 19.3877 11.6887 19.1667 11.6887Z" fill="#1A1A1A"/>
</g>
<defs>
<clipPath id="clip0_4542_2423">
<rect width="20" height="20" fill="white" transform="translate(0 0.0219727)"/>
</clipPath>
</defs>
</svg>
