<svg width="20" height="21" viewBox="0 0 20 21" fill="none" xmlns="http://www.w3.org/2000/svg">
<g clip-path="url(#clip0_4542_2428)">
<path d="M17.5 3.35531H14.9166C14.7232 2.41482 14.2115 1.56976 13.4677 0.962571C12.7239 0.355381 11.7935 0.0231848 10.8333 0.0219727L9.16663 0.0219727C8.20646 0.0231848 7.27606 0.355381 6.53225 0.962571C5.78844 1.56976 5.27671 2.41482 5.08329 3.35531H2.49996C2.27895 3.35531 2.06698 3.4431 1.9107 3.59938C1.75442 3.75566 1.66663 3.96763 1.66663 4.18864C1.66663 4.40965 1.75442 4.62161 1.9107 4.77789C2.06698 4.93418 2.27895 5.02197 2.49996 5.02197H3.33329V15.8553C3.33462 16.96 3.77403 18.019 4.55514 18.8001C5.33626 19.5812 6.3953 20.0206 7.49996 20.022H12.5C13.6046 20.0206 14.6637 19.5812 15.4448 18.8001C16.2259 18.019 16.6653 16.96 16.6666 15.8553V5.02197H17.5C17.721 5.02197 17.9329 4.93418 18.0892 4.77789C18.2455 4.62161 18.3333 4.40965 18.3333 4.18864C18.3333 3.96763 18.2455 3.75566 18.0892 3.59938C17.9329 3.4431 17.721 3.35531 17.5 3.35531ZM9.16663 1.68864H10.8333C11.3502 1.68927 11.8542 1.84979 12.2763 2.14818C12.6984 2.44656 13.0178 2.86822 13.1908 3.35531H6.80913C6.98211 2.86822 7.30154 2.44656 7.72362 2.14818C8.14569 1.84979 8.64973 1.68927 9.16663 1.68864ZM15 15.8553C15 16.5183 14.7366 17.1542 14.2677 17.6231C13.7989 18.0919 13.163 18.3553 12.5 18.3553H7.49996C6.83692 18.3553 6.20103 18.0919 5.73219 17.6231C5.26335 17.1542 4.99996 16.5183 4.99996 15.8553V5.02197H15V15.8553Z" fill="#FF4237"/>
<path d="M8.33333 15.0219C8.55435 15.0219 8.76631 14.9341 8.92259 14.7778C9.07887 14.6215 9.16667 14.4096 9.16667 14.1886V9.18856C9.16667 8.96754 9.07887 8.75558 8.92259 8.5993C8.76631 8.44302 8.55435 8.35522 8.33333 8.35522C8.11232 8.35522 7.90036 8.44302 7.74408 8.5993C7.5878 8.75558 7.5 8.96754 7.5 9.18856V14.1886C7.5 14.4096 7.5878 14.6215 7.74408 14.7778C7.90036 14.9341 8.11232 15.0219 8.33333 15.0219Z" fill="#FF4237"/>
<path d="M11.6667 15.0219C11.8877 15.0219 12.0997 14.9341 12.256 14.7778C12.4122 14.6215 12.5 14.4096 12.5 14.1886V9.18856C12.5 8.96754 12.4122 8.75558 12.256 8.5993C12.0997 8.44302 11.8877 8.35522 11.6667 8.35522C11.4457 8.35522 11.2337 8.44302 11.0775 8.5993C10.9212 8.75558 10.8334 8.96754 10.8334 9.18856V14.1886C10.8334 14.4096 10.9212 14.6215 11.0775 14.7778C11.2337 14.9341 11.4457 15.0219 11.6667 15.0219Z" fill="#FF4237"/>
</g>
<defs>
<clipPath id="clip0_4542_2428">
<rect width="20" height="20" fill="white" transform="translate(0 0.0219727)"/>
</clipPath>
</defs>
</svg>
